<?xml version="1.0" encoding="utf-8"?>
<!-- Generator: Adobe Illustrator 16.0.0, SVG Export Plug-In . SVG Version: 6.00 Build 0)  -->
<!DOCTYPE svg PUBLIC "-//W3C//DTD SVG 1.1//EN" "http://www.w3.org/Graphics/SVG/1.1/DTD/svg11.dtd">
<svg version="1.1" xmlns="http://www.w3.org/2000/svg" xmlns:xlink="http://www.w3.org/1999/xlink" x="0px" y="0px"
	 width="137.875px" height="53.825px" viewBox="0 0 137.875 53.825" enable-background="new 0 0 137.875 53.825"
	 xml:space="preserve">
<g id="Background_xA0_Image_1_">
</g>
<g id="Layer_1_xA0_Image_1_">
</g>
<g id="고려대학교_글로벌건설_엔지니어링">
	<g id="korea_University_Global_construction_engineering_department_1_">
	</g>
	<g>
		<path fill="#910023" d="M40.051,29.141V0h-0.697H0v29.155c-0.003,0.428-0.028,10.672,7.267,16.746L7.25,45.889
			c0.229,0.202,5.686,4.986,12.465,7.906l0.134,0.057h0.365l0.139-0.065c6.527-3.027,12.478-7.832,12.538-7.879
			C40.195,39.825,40.06,29.576,40.051,29.141z"/>
		<g>
			<polygon fill="#E1D7C7" points="1.473,1.485 1.473,1.77 38.67,1.77 38.67,1.485 1.473,1.485 			"/>
			<polygon fill="#E1D7C7" points="1.473,9.448 1.473,9.733 38.67,9.733 38.67,9.448 1.473,9.448 			"/>
			<polygon fill="#E1D7C7" points="1.388,14.203 1.388,14.487 38.587,14.487 38.587,14.203 1.388,14.203 			"/>
			<path fill="#E1D7C7" d="M8.405,8.231C8.207,8.081,8.019,7.938,7.61,7.511c0,0-1.719-1.902-1.98-2.191
				c0.066-0.083,1.999-2.445,1.999-2.446l0.114-0.12H7.598H6.769L4.597,5.439V2.753H4.534H3.615v5.674h0.982V5.521l2.268,2.524
				c0.187,0.251,0.525,0.382,0.999,0.382h0.811L8.48,8.288C8.483,8.289,8.405,8.231,8.405,8.231L8.405,8.231z"/>
			<path fill="#E1D7C7" d="M13.057,2.585c-0.864-0.005-1.608,0.287-2.211,0.865C10.245,4.028,9.938,4.738,9.938,5.56
				c0,0.866,0.302,1.594,0.9,2.16c0.581,0.558,1.299,0.84,2.139,0.84c0.839,0,1.567-0.292,2.164-0.869
				c0.595-0.577,0.9-1.309,0.9-2.173c0-0.792-0.281-1.479-0.834-2.04C14.632,2.892,13.907,2.591,13.057,2.585 M13.016,7.819
				c-0.59,0-1.091-0.248-1.478-0.736c-0.365-0.453-0.55-0.991-0.55-1.6c0-0.626,0.186-1.15,0.551-1.553
				c0.366-0.4,0.856-0.604,1.46-0.604c0.594,0,1.086,0.245,1.466,0.729c0.347,0.446,0.524,0.997,0.524,1.632
				c0,0.617-0.179,1.132-0.532,1.529C14.093,7.614,13.606,7.819,13.016,7.819L13.016,7.819z"/>
			<path fill="#E1D7C7" d="M26.781,5.714c0.117,0,1.824,0.001,1.824,0.001V4.972c0,0-1.707,0-1.824,0c0-0.11,0-1.359,0-1.47
				c0.398-0.01,2.232-0.001,2.252-0.001l0.063,0.001V2.739L25.79,2.737V2.8l0.004,5.627h3.645l0.009-0.8
				c0,0-2.549,0.003-2.667,0.003C26.781,7.516,26.781,5.827,26.781,5.714L26.781,5.714z"/>
			<path fill="#E1D7C7" d="M34.714,2.737h-0.911l-2.319,5.689h0.878c0,0,0.752-2.009,0.78-2.088c0.081,0,1.967,0,2.05,0
				c0.028,0.078,0.795,2.088,0.795,2.088h1.089l-2.32-5.689H34.714 M34.874,5.587c-0.153,0-1.304,0-1.458,0
				c0.056-0.147,0.639-1.621,0.737-1.869C34.248,3.967,34.819,5.44,34.874,5.587L34.874,5.587z"/>
			<path fill="#E1D7C7" d="M22.368,7.142c0,0-0.943-1.18-1.181-1.477c0.195-0.072,0.536-0.225,0.797-0.497
				c0.286-0.297,0.429-0.636,0.429-1.007c0-0.416-0.158-0.76-0.471-1.019c-0.325-0.269-0.775-0.404-1.34-0.404h-1.826h-0.063v5.688
				h1.014V8.339C19.702,8.148,19.7,7.856,19.7,7.18c0,0,0-3.611,0-3.733c0.928-0.008,1.297,0.109,1.441,0.211
				c0.194,0.139,0.29,0.338,0.287,0.609c-0.003,0.629-0.464,1.004-1.406,1.146l-0.108,0.015l1.994,2.553
				c0.236,0.297,0.582,0.446,1.028,0.446h0.813l-0.167-0.115C23.177,8.035,22.733,7.608,22.368,7.142L22.368,7.142z"/>
			<path fill="#E1D7C7" d="M18.794,12.13c0.057,0,0.87,0,0.87,0v-0.354c0,0-0.813,0.001-0.87,0.001c0-0.054,0-0.65,0-0.701
				c0.189-0.005,1.063,0,1.073,0h0.029v-0.363l-1.574-0.002v0.031l0.002,2.681h1.73l0.011-0.382c0,0-1.214,0.002-1.272,0.002
				C18.794,12.987,18.794,12.183,18.794,12.13L18.794,12.13z"/>
			<path fill="#E1D7C7" d="M5.843,10.713H5.517l0.002,1.671c0,0.498-0.115,0.771-0.728,0.771H4.719
				c-0.408,0-0.614-0.261-0.614-0.771c0-0.002,0.002-1.671,0.002-1.671H3.637l-0.001,1.673c0,0.202,0.008,0.341,0.025,0.426
				c0.028,0.151,0.091,0.283,0.189,0.391c0.177,0.192,0.43,0.291,0.753,0.291h0.304c0.322,0,0.577-0.099,0.752-0.291
				c0.097-0.107,0.16-0.239,0.189-0.392c0.017-0.084,0.024-0.223,0.024-0.425l-0.001-1.673H5.843L5.843,10.713z"/>
			<path fill="#E1D7C7" d="M9.929,10.713l-0.001,0.03c0,0-0.003,1.803-0.003,1.961c-0.101-0.127-1.568-1.991-1.568-1.991H7.948
				v2.715h0.354c0,0,0.002-1.87,0.002-2.03c0.1,0.129,1.591,2.029,1.591,2.029l0.391,0.001v-2.715h-0.033H9.929L9.929,10.713z"/>
			<polygon fill="#E1D7C7" points="12.287,10.713 12.287,13.428 12.753,13.428 12.755,10.713 12.725,10.713 12.287,10.713 			"/>
			<polyline fill="#E1D7C7" points="29.265,13.428 29.732,13.428 29.732,12.832 29.732,11.313 29.732,10.743 29.732,10.713 
				29.702,10.713 29.261,10.713 29.261,10.713 29.261,11.313 29.261,12.832 29.265,13.428 			"/>
			<path fill="#E1D7C7" d="M16.371,10.713c0,0-0.725,1.983-0.777,2.128c-0.051-0.145-0.763-2.128-0.763-2.128h-0.533l1.012,2.718
				l0.425-0.002l1.048-2.716h-0.042H16.371L16.371,10.713z"/>
			<path fill="#E1D7C7" d="M26.968,12.052c-0.002-0.002-0.365-0.18-0.365-0.18l-0.312-0.152c-0.228-0.12-0.343-0.25-0.343-0.389
				c0-0.115,0.053-0.199,0.16-0.259c0.081-0.048,0.199-0.07,0.343-0.065c0.237,0.007,0.48,0.078,0.607,0.176l0.047,0.037v-0.481
				l-0.02-0.007c-0.19-0.059-0.397-0.09-0.611-0.09c-0.281,0-0.518,0.057-0.705,0.166c-0.225,0.128-0.339,0.318-0.339,0.565
				c0,0.251,0.126,0.461,0.375,0.621c0.001,0.002,0.134,0.066,0.134,0.066l0.541,0.265c0.229,0.121,0.344,0.261,0.344,0.418
				c0,0.118-0.061,0.214-0.187,0.287c-0.111,0.069-0.233,0.103-0.359,0.102c-0.292-0.002-0.567-0.074-0.815-0.219l-0.052-0.031
				l0.07,0.475l0.019,0.006c0.217,0.081,0.466,0.123,0.732,0.123c0.33,0,0.615-0.086,0.82-0.248c0.194-0.156,0.29-0.364,0.29-0.616
				C27.342,12.401,27.216,12.21,26.968,12.052L26.968,12.052z"/>
			<path fill="#E1D7C7" d="M31.511,10.703v0.028l-0.001,0.327c0,0,0.7,0,0.757,0.002c0,0.058,0,2.36,0,2.36h0.467
				c0,0,0.001-2.303,0.001-2.36c0.057,0,0.774,0,0.774,0v-0.357H31.511L31.511,10.703z"/>
			<path fill="#E1D7C7" d="M36.569,10.706c0,0-0.693,1.069-0.74,1.143c-0.047-0.073-0.728-1.146-0.728-1.146h-0.016H34.56
				c0,0,0.967,1.521,0.978,1.536c0,0.016-0.004,1.182-0.004,1.182h0.47c0,0,0.002-1.164,0.002-1.182
				c0.01-0.016,1.017-1.533,1.017-1.533H36.569L36.569,10.706z"/>
			<path fill="#E1D7C7" d="M23.583,12.81c0,0-0.449-0.563-0.564-0.705c0.096-0.033,0.258-0.105,0.381-0.234
				c0.136-0.143,0.205-0.305,0.205-0.48c0-0.199-0.075-0.361-0.225-0.486c-0.156-0.128-0.37-0.191-0.638-0.191h-0.871h-0.028v2.71
				h0.482V13.38c-0.012-0.091-0.012-0.223-0.012-0.552c0,0,0-1.72,0-1.78c0.44-0.004,0.617,0.052,0.686,0.102
				c0.094,0.065,0.139,0.16,0.137,0.29c-0.001,0.3-0.221,0.479-0.67,0.546l-0.05,0.008l0.949,1.215
				c0.112,0.142,0.275,0.214,0.487,0.214h0.391l-0.083-0.056C23.967,13.235,23.756,13.03,23.583,12.81L23.583,12.81z"/>
		</g>
		<g>
			<path fill="#E1D7C7" d="M38.657,29.155c0,0.009,0,0.028,0,0.063c0,0.86-0.154,10.203-6.65,15.612
				c-0.053,0.04-5.719,4.615-11.986,7.575c-6.458-2.844-11.794-7.516-11.848-7.563l-0.015-0.013
				C1.47,39.265,1.393,29.53,1.393,29.173c0-0.005,0-6.473,0-13.173h37.264C38.657,22.694,38.657,29.155,38.657,29.155z"/>
		</g>
		<g>
			<path fill="#910023" d="M16.89,47.74h0.512c0.071,0,0.045-0.063,0.045-0.063c-0.208-0.92-0.1-1.643-0.06-1.856
				c0,0,0.021-0.063-0.053-0.063h-0.506c-0.068,0-0.042,0.054-0.042,0.054c0.171,0.708,0.104,1.602,0.06,1.862
				C16.846,47.673,16.814,47.74,16.89,47.74L16.89,47.74z"/>
			<path fill="#910023" d="M18.787,45.7c-0.815,0.08-0.765,1.034-0.765,1.034c0.05,0.864,0.946,1.027,0.946,1.027
				c-0.245,0.663-0.899,0.86-0.899,0.86c-0.154,0.059-0.042,0.104-0.042,0.104c0.196,0.065,0.48-0.049,0.48-0.049
				c1.197-0.537,1.228-1.791,1.228-1.791C19.76,45.607,18.787,45.7,18.787,45.7 M19.077,47.459c-0.39,0.011-0.484-0.596-0.484-0.596
				c-0.1-0.666,0.159-0.704,0.159-0.704c0.274-0.087,0.394,0.481,0.394,0.481C19.279,47.294,19.077,47.459,19.077,47.459
				L19.077,47.459z"/>
			<path fill="#910023" d="M21.804,46.474c0,0-0.107-0.793-0.851-0.784c0,0-0.734-0.019-0.768,1c0,0-0.028,1.076,0.9,1.029
				C21.085,47.719,21.996,47.662,21.804,46.474 M21.098,47.379c-0.352,0.129-0.391-0.59-0.391-0.59
				c-0.038-0.686,0.243-0.755,0.243-0.755c0.282-0.069,0.361,0.436,0.361,0.436C21.439,47.25,21.098,47.379,21.098,47.379
				L21.098,47.379z"/>
			<path fill="#910023" d="M22.023,47.994c0.786,0.154,0.993-0.402,0.993-0.402c0.251-0.788-0.735-0.826-0.735-0.826l0.159-1.017
				c0,0,0.989,0.049,1.253-0.083c0,0,0.062-0.042,0.028,0.106c0,0-0.055,0.338-0.377,0.363l-0.486,0.04l-0.046,0.285
				c0,0,0.841-0.017,0.826,0.891c0,0-0.031,0.704-0.853,0.875c0,0-0.385,0.085-0.828-0.095c0,0-0.068-0.034-0.032-0.087
				C21.924,48.045,21.956,47.979,22.023,47.994L22.023,47.994z"/>
			<path fill="#910023" d="M19.127,28.968c0.062-0.076,0.142-0.022,0.209,0c0.063,0.018,0.065,0.142,0.102,0.205
				c0.02,0.044,0.143,0.169,0.154,0.207c0.1,0.457,0,1.055-0.206,1.401c-0.058,0.108-0.153,0.163-0.219,0.167
				c-0.086,0.009-0.114-0.118-0.145-0.167c-0.131-0.184-0.032-0.621,0-0.824c0.035-0.265-0.171-0.688-0.04-0.88
				C18.983,29.077,19.125,28.968,19.127,28.968L19.127,28.968z"/>
			<path fill="#910023" d="M12.913,29.449c0.111-0.033,0.271,0.021,0.338,0l0.149-0.061c0.173-0.11,0.344-0.079,0.519-0.062
				c0.087,0.011,0.347,0.122,0.433,0.125c0.139,0.017,0.792,0.086,1.488,0.188c-0.006-0.002,0.371-0.051,0.275-0.154
				c0.06,0.067-0.011-0.057-0.153-0.105l-0.048-0.053c0.006-0.005-0.121-0.105,0.104-0.18c-0.085,0.025,0.147-0.034,0.192-0.083
				c0.09-0.097-0.042-0.2-0.042-0.2c-0.328-0.111-0.698,0.1-1.191,0.048c-0.243-0.021-0.588-0.159-0.931-0.103
				c-0.374,0.065-0.922,0.276-1.184,0.479C12.862,29.289,12.738,29.507,12.913,29.449L12.913,29.449z"/>
			<path fill="#910023" d="M17.071,26.757c0.336-0.02,0.351,0.328,0.359,0.293c-0.039,0.248-0.649,0.271-0.794,0.465
				c-0.426,0.555-0.249,1.086-1.257,1.143c0,0-0.202-0.047-0.124-0.13c0.063-0.066,0.308-0.132,0.397-0.188
				c0.13-0.074,0.12-0.284,0.206-0.413c0.018-0.032,0.132-0.072,0.16-0.101c0.283-0.383,0.314-0.77,0.814-0.997
				C16.852,26.816,17.034,26.765,17.071,26.757L17.071,26.757z"/>
			<path fill="#910023" d="M20.299,25.263c0.115-0.065,0.229,0,0.304,0.068c0.044,0.03,0.414,0.914,0.43,1.002
				c0.047,0.322,0.083,1.063-0.004,1.301c-0.124,0.332-0.431,0.588-0.364,1.176c0.036,0.346,0.188,0.614,0.335,0.915
				c0.017,0.051,0.168,0.345,0.176,0.405c0.057,0.315-0.116,0.726-0.143,0.981c-0.078,0.639,0.178,1.218,0.076,1.826
				c-0.043,0.261-0.127,0.394-0.271,0.557l-0.115,0.097c-0.032,0.063-0.088,0.085-0.146,0.129l-0.07,0.072
				c-0.108,0.025-0.119,0.089-0.163,0.093c-0.273,0.062-0.329-0.1-0.312-0.062c-0.277-0.779,0.187-1.691-0.05-2.445
				c-0.055-0.174-0.259-0.345-0.287-0.531c-0.094-0.674,0.537-1.029,0.529-1.483c0-0.324-0.426-0.744-0.522-1.063
				c-0.12-0.373-0.2-1.09-0.036-1.557c0.038-0.113,0.184-0.305,0.225-0.456c0.077-0.291,0.197-0.53,0.239-0.726
				c0.014-0.059,0.052-0.144,0.083-0.2C20.224,25.343,20.28,25.273,20.299,25.263L20.299,25.263z"/>
			<path fill="#910023" d="M28.356,23.651c0.456-0.053,0.661,0.127,0.448,0.516l-0.09,0.084c-0.037,0.014-0.157,0.172-0.183,0.195
				c-0.221,0.162-0.428,0.262-0.596,0.468c-0.058,0.068-0.105,0.245-0.177,0.306c-0.114,0.082-0.55,0.273-0.661,0.293
				c-0.552,0.089-1.303-0.462-1.385-0.781c-0.071-0.271,0-0.537,0.119-0.6c0.186-0.096,0.677-0.045,0.844-0.063
				c0.426-0.033,0.694-0.009,1.019-0.121C27.892,23.884,28.118,23.679,28.356,23.651L28.356,23.651z"/>
			<path fill="#910023" d="M26.003,23.467c0,0,0.259,0.108,0.491,0.052c0.164-0.041,0.468-0.18,0.621-0.207
				c0.093-0.021,0.223,0.025,0.313,0c0.251-0.077,0.715-0.57,0.161-0.623c-0.203-0.019-0.803,0.208-0.992,0.26
				c-0.187,0.049-0.304,0.08-0.46,0.161c-0.041,0.024-0.257,0.201-0.23,0.171C25.907,23.28,25.764,23.399,26.003,23.467
				L26.003,23.467z"/>
			<path fill="#910023" d="M22.031,24.399c-0.162-0.022-0.162-0.295-0.571-0.207c-0.285,0.061-0.362,0.479-0.778,0.468l-0.206-0.101
				c-0.18-0.043-0.31,0.02-0.468-0.059c-0.731-0.342,0.566-2.095,0.986-2.071c0.022,0,0.238,0.079,0.264,0.103
				c0.13,0.113,0.13,0.602,0.252,0.779c0.094,0.124,0.241,0.114,0.366,0.207c0.133,0.101,0.382,0.445,0.413,0.626
				C22.291,24.145,22.358,24.443,22.031,24.399L22.031,24.399z"/>
			<path fill="#910023" d="M28.782,38.567C28.79,38.557,28.79,38.557,28.782,38.567L28.782,38.567z"/>
			<path fill="#910023" d="M34.603,23.148C34.603,23.141,34.603,23.14,34.603,23.148L34.603,23.148z"/>
			<rect x="28.779" y="38.568" fill="#910023" width="0.003" height="0"/>
			<path fill="#910023" d="M34.603,23.148c0,0.003,0,0.007,0,0.011l0.003,0.002C34.603,23.155,34.603,23.151,34.603,23.148
				L34.603,23.148z"/>
			<path fill="#910023" d="M28.054,22.655c0.004-0.01,0.009-0.02,0.013-0.027C28.053,22.655,28.051,22.66,28.054,22.655
				L28.054,22.655z"/>
			<path fill="#910023" d="M24.899,31.511c-0.001,0-0.007,0-0.009-0.002C24.899,31.515,24.901,31.515,24.899,31.511L24.899,31.511z"
				/>
			<path fill="#910023" d="M18.886,24.529c-0.283,0.158-0.9,0.401-1.03,0.675c-0.072,0.145-0.072,0.27-0.13,0.442
				c-0.008,0.019-0.084,0.05-0.108,0.102c-0.301,0-0.567-0.019-0.828,0.052c-0.204,0.057-0.498,0.273-0.726,0.313
				c-0.46,0.08-0.813-0.125-1.245-0.053c-0.192,0.035-0.316,0.234-0.474,0.314c-0.135,0.064-0.19,0.064-0.295,0.16l-0.096,0.11
				c-0.015,0.042-0.062,0.147-0.092,0.196c-0.094,0.142-0.131,0.285-0.154,0.437c-0.023,0.148-0.109,0.502-0.186,0.649
				c-0.038,0.07-0.232,0.229-0.261,0.295c-0.015,0.044-0.059,0.087,0,0.154c-0.067-0.074-0.054,0.072,0.32,0.091
				c0.411,0.009,1.306-0.265,1.306-0.265l0.43-0.231c0.083-0.064,0.416-0.317,0.489-0.404c0.313-0.389,1.151-1.803,1.802-1.433
				l0.117,0.084c0.156,0.262-0.041,1.008-0.157,1.178l-0.147,0.176c-0.116,0.038-0.198,0.339-0.215,0.479
				c-0.027,0.223,0.037,0.425,0.054,0.55c0.034,0.269,0.061,0.608-0.104,0.939c-0.037,0.063-0.13,0.18-0.105,0.359
				c0.032,0.203,0.32,0.352,0.362,0.521c0.025,0.085,0.099,0.1,0,0.26c-0.056,0.087-0.293,0.237-0.362,0.312
				c-0.093,0.095-0.012,0.245,0.05,0.304c0.179,0.163,0.328,0.182,0.467,0.37c0.199,0.254,0.187,0.476,0.625,0.518
				c0.343,0.032,0.828,0.051,0.623-0.416l-0.103-0.176c-0.122-0.304-0.335-0.577-0.364-0.911c-0.041-0.425,0.302-0.641,0.157-0.985
				c-0.115-0.262-0.633-0.232-0.676-0.574c-0.022-0.192,0.172-0.597,0.208-0.78c0.041-0.249-0.026-0.407,0.055-0.62
				c0.051-0.153,0.278-0.325,0.303-0.517c0.049-0.342-0.216-0.559-0.101-0.933c0.057-0.193,0.359-0.172,0.471-0.314
				c0.144-0.192,0.064-0.457,0.152-0.728c0.009-0.031,0.083-0.192,0.099-0.221c-0.009-0.011,0.059-0.348,0.059-0.348
				C19.033,24.45,18.902,24.536,18.886,24.529 M15.6,27.268c-0.291,0.067-0.316-0.554-1.016-0.312
				c-0.036,0.014-0.233,0.193-0.249,0.222c-0.082,0.186-0.038,0.656-0.13,0.702c0,0-0.271,0.067-0.218-0.276
				c0.084-0.546,0.189-0.647,0.464-0.878c0.038-0.029,0.141-0.107,0.194-0.118c0.33-0.075,0.938,0.051,1.047,0.218
				C15.786,26.964,15.587,27.271,15.6,27.268L15.6,27.268z"/>
			<path fill="#910023" d="M34.603,23.159c-0.048-0.254-0.737-0.236-1.015-0.574c-0.104-0.135-0.026-0.209,0-0.311
				c0.079-0.296,0.708-0.121,0.856-0.384c0.06-0.11,0.08-0.435,0.041-0.479c-0.395-0.484-1.228-0.254-1.815-0.488
				c-0.283-0.117-0.636-0.352-0.934-0.465c-0.374-0.143-0.663-0.164-1.037-0.313c-0.085-0.036-0.251-0.158-0.34-0.195
				c-0.417-0.166-0.747-0.199-1.161-0.377c-0.05-0.018-0.176-0.09-0.231-0.112c-0.165-0.071-0.218-0.081-0.395-0.146
				c-0.641-0.231-1.458-0.438-2.388-0.379c-0.407,0.022-0.876-0.053-1.504,0.126c-0.217,0.055-0.521,0.242-0.724,0.307
				c-0.144,0.043-0.267,0.067-0.397,0.124c-0.181,0.073-0.341,0.179-0.588,0.237c-0.713,0.16-1.665-0.016-2.388,0.105
				c-0.626,0.101-0.989,0.496-1.504,0.674c-0.158,0.053-0.222,0.036-0.377,0.092c-0.09,0.031-0.303,0.088-0.375,0.129
				c-0.215,0.11-0.355,0.144-0.598,0.246c-0.122,0.054-0.266,0.165-0.383,0.22c-0.175,0.086-0.185,0.11-0.329,0.216l-0.117,0.085
				c0,0-0.253,0.222-0.284,0.261c-0.101,0.105-0.198,0.251-0.285,0.361c-0.264,0.307-0.66,0.692-0.988,0.93
				c-0.119,0.086-0.203,0.068-0.308,0.16c-0.124,0.094-0.233,0.195-0.351,0.285c-0.272,0.195-0.544,0.324-0.844,0.488l-0.192,0.128
				c-0.253,0.167-0.243,0.234-0.506,0.399c-0.171,0.117-0.246,0.294-0.404,0.428c-0.104,0.082-0.224,0.334-0.294,0.443
				c-0.326,0.477-0.448,1.18-0.68,1.772c-0.07,0.168-0.636,0.984-0.777,1.036l-0.104,0.099c-0.081,0.068-0.081,0.089-0.154,0.161
				c-0.167,0.147-0.337,0.233-0.466,0.416c-0.105,0.141-0.167,0.307-0.264,0.463c-0.148,0.243-0.392,0.514-0.516,0.78
				c-0.05,0.097-0.086,0.196-0.122,0.291c-0.013,0.013-0.023,0.03-0.026,0.03c-0.063,0.08-0.173,0.414-0.173,0.414
				c-0.115,0.269-0.389,0.419-0.751,0.935c-0.423,0.031-1.882-0.339-2.875-0.81c0.222,0.247,1.335,0.995,2.64,1.139
				c-0.087,0.127-0.094,0.259-0.25,0.299c-0.521,0.129-1.428-0.156-2.647-0.582c0.071,0.17,1.145,0.8,2.729,0.895
				c-0.235,0.277-2.412,0.207-4.115-0.256c-0.064,0.178,2.129,0.666,3.333,0.649c-0.206,0.105-0.748,0.229-1.096,0.354
				c-0.549-0.061-1.314-0.156-1.463-0.213c0.034,0.109,0.578,0.258,1.027,0.363c-0.433,0.154-1.072,0.243-1.321,0.296
				c0.181,0.045,0.875-0.065,1.605-0.241c0.64,0.123,1.618,0.25,2.157,0.227c-0.135,0.065-0.642,0.394-1.042,0.626
				c-1.022,0.097-2.135,0.182-2.374,0.211c0.134,0.021,1.031,0.036,1.987,0.011c-0.584,0.343-1.207,0.7-1.506,0.835
				c0.443-0.112,1.235-0.414,2.044-0.85c0.803-0.029,1.556-0.095,1.869-0.207c-0.107,0.234-0.756,1.354-1.36,1.613
				c0.261-0.043,1.099-0.279,1.606-1.548c0.18,0.078,0.385,0.123,0.624,0.138c0.134,0.202,0.45,0.719,1.049,0.748
				c0.122,0.347,1.233,2.16,2.794,1.452c-0.451-0.245-0.724-0.499-0.946-1.222c0.692-0.042,2.526,0.962,3.078,3.135
				c-0.435-0.146-0.978-0.397-1.035-0.615c-0.119,0.504-0.197,1.152,0.915,2.272c0.021,0.239,0.017,0.527,0.068,0.798
				c0.183,0.192,0.396,0.334,0.592,0.501c0.014,0.316-0.031,0.75,0.798,0.991c0.282,0.232,1.186,0.481,1.318,0.639
				c0.27,0.086,0.671,0.102,0.962,0.086c0,0,0.393-0.067,0.498-0.218c0.196-0.01,0.462-0.017,1.664-1.298
				c0.252-0.3,0-1.957,0.061-2.359c0.118-0.291,0.17-0.56,0.331-0.919c0,0,0.163-0.355,0.47-0.497
				c0.021-0.011,0.039-0.011,0.064-0.017c0.692-0.156,1.594,0.49,2.02,0.672c0.155,0.063,0.237,0.029,0.362,0.105
				c0.062,0.032,0.147,0.174,0.21,0.21c0.152,0.084,0.299,0.061,0.47,0.151c0.248,0.138,0.752,0.867,1.19,0.782
				c0.136-0.031,0.244-0.344,0.362-0.418c0.205-0.127,0.491-0.114,0.674-0.258c0.209-0.165,0.123-0.349,0.155-0.573
				c0-0.011,0.097-0.114,0.105-0.158c0.102-0.011,0.328-0.002,0.469-0.047c0.018-0.006,0.078-0.076,0.102-0.102
				c0.089-0.095,0.024-0.192,0-0.269c-0.032-0.084-0.243-0.182-0.31-0.253c-0.156-0.157-0.422-0.381-0.522-0.569
				c-0.047-0.097,0.013-0.116-0.054-0.213c-0.068-0.108-0.25-0.223-0.305-0.359c-0.2-0.446-0.121-1.438-0.209-1.577
				c-0.083-0.134-0.184-0.116-0.265-0.241c-0.172-0.272,0.04-1.154,0.056-1.503c0.015-0.279-0.259-0.106-0.259-0.106
				c-0.227,0.561-0.203,0.808-0.259,1.609c-0.009,0.071-0.104,0.499-0.104,0.575c-0.003,0.278,0.161,0.752,0.049,1.088
				c-0.036,0.108-0.262,0.319-0.57,0.312c-0.116,0-0.697-0.15-0.829-0.207c-0.025-0.013-0.149-0.154-0.158-0.159
				c-0.288-0.229-0.349-0.015-0.362,0.102c-0.009,0.121,0.04,0.142,0.063,0.209c0.01,0.066,0.127,0.315,0.115,0.337
				c-0.004,0.022-0.105,0.296-0.645-0.021c-0.406-0.245-0.808-0.924-0.83-1.04c-0.056-0.26,0.024-0.457,0.074-0.546
				c0.203-0.184,0.444,0.07,0.647,0.18c0.051,0.028,0.176,0.116,0.238,0.127c0.119,0.021,0.31-0.021,0.336-0.021
				c0.788-0.047,1.604,0.238,1.744-0.29c0.087-0.332-0.239-0.512-0.297-0.646c-0.074-0.17-0.036-0.18-0.079-0.366
				c-0.007-0.015-0.061-0.135-0.073-0.15c-0.08-0.137-0.022-0.258-0.103-0.414c-0.083-0.169-0.315-0.271-0.412-0.414
				c-0.135-0.192-0.135-0.432-0.315-0.573c-0.266-0.218-1.329-0.534-1.453-0.78c-0.202-0.393,0.047-1.113-0.051-1.606
				c-0.053-0.287-0.147-0.446-0.323-0.623c-0.068-0.07-0.101-0.174-0.076-0.267c0.046-0.172,0.138-0.125,0.19-0.512
				c0.033-0.214-0.02-0.452,0-0.674c0.001-0.036,0.103-0.374,0.109-0.414c0.047-0.58-0.029-1.186-0.157-1.605
				c-0.061-0.204-0.25-0.38-0.313-0.574c-0.055-0.162,0.011-0.256-0.055-0.416c-0.051-0.143-0.232-0.242-0.305-0.359
				c-0.141-0.207-0.1-0.557-0.315-0.677c-0.157-0.088-0.213,0.035-0.204,0c-0.053,0.19-0.041,0.376,0.051,0.622
				c0.038,0.105,0.232,0.26,0.263,0.364c0.041,0.192-0.031,0.424,0,0.624l0.1,0.209c0.079,0.52-0.204,1.211-0.415,1.501
				c-0.148,0.192-0.594,0.438-0.621,0.726c-0.023,0.18,0.05,0.186,0.096,0.262c0.067,0.095,0.281,0.22,0.314,0.311
				c0.023,0.067,0.049,0.053,0.077,0.12l0.027,0.142c0.036,0.362-0.438,0.444-0.208,0.88c0.065,0.127,0.288,0.127,0.413,0.205
				c0.236,0.15,0.683,0.57,0.726,0.93c0.02,0.159,0,0.994-0.047,1.094c-0.108,0.232-0.691,0.321-0.625,0.779
				c0.074,0.499,1.391,0.357,1.761,0.62c0.176,0.122,0.212,0.391,0.265,0.628c0.03,0.129-0.099,0.173-0.156,0.202
				c-0.139,0.081-0.239,0.018-0.416,0.056c-0.428,0.087-1.112,0.279-1.292,0.623c-0.226,0.397,0.041,0.941-0.055,1.397
				c-0.094,0.412-0.404,0.916-0.627,1.25c-0.138,0.2-0.313,0.401-0.377,0.687c-0.153,0.613-0.046,1.336-0.09,2.055l-0.008,0.005
				c0,0,0.026,0.374-0.225,0.645c-0.285,0.313-1.273,1.236-1.973,1.236c-0.26-0.008-0.366-0.093-0.649-0.298
				c-0.179-0.015-0.59-0.116-0.827-0.363c-0.075-0.131-0.848-0.916-0.362-1.14c0.458-0.211,1.198,0.247,1.541,0.47
				c0.139,0,1.14,0.048,2.203-1.345c-0.05-0.729-0.11-1.664-0.189-1.835c-0.111-0.357-0.715-0.989-0.844-1.366
				c-0.08-0.309-0.224-0.911-0.131-1.327c-0.041-0.468-0.335-0.569-0.457-0.947c-0.034-0.095-0.074-0.169-0.095-0.198
				c-0.037-0.136-0.062-0.259-0.146-0.383c-0.184-0.281-0.364-0.343-0.533-0.62c-0.176-0.285-0.145-0.643-0.416-0.83
				c-0.149-0.1-0.35-0.108-0.518-0.205c-0.122-0.074-0.274-0.25-0.415-0.312c-0.164-0.073-0.209-0.095-0.375-0.169
				c-0.081-0.038-0.229-0.104-0.3-0.142c-0.073-0.042-0.146-0.006-0.207-0.055c-0.2-0.171-0.056-0.323-0.155-0.619
				c-0.01-0.036-0.088-0.038-0.106-0.104c-0.083-0.023-0.228-0.154-0.341-0.076c-0.155,0.114-0.199,0.08-0.295,0.319
				c-0.056,0.156-0.162,0.617-0.267,0.729c-0.094,0.11-0.211,0.265-0.358,0.368c-0.138,0.072-0.259,0.063-0.259,0.063l-0.388,0.057
				l-0.193,0.299c0,0-0.211-0.03-0.323-0.03c-0.031,0.072-0.288,0.269-0.368,0.339c-0.329,0.192-0.531,0.057-0.552-0.013
				c-0.017-0.063-0.121-0.192,0.102-0.326c0.76-0.213,1.693-1.23,1.771-1.452c-0.097,0.15-1.671,1.02-1.962,1.136
				c0.313-0.742,2.242-1.829,2.359-1.958c-0.494,0.076-2.136,1.067-2.422,1.508c-0.273,0.441-0.594,0.318-0.897,0.306
				c-0.294-0.01-0.27,0.307-0.284,0.502c-0.003,0.188-0.15,0.574-0.026,0.643c0.202,0.173,0.732-0.531,0.901-0.152
				c0.092,0.423-1,0.403-0.99,0.744c-0.052,0.18,1.008,0.243,1.203,0.434c-0.34,0.249-1.174,0.329-1.422,0.342
				c-0.155,0.013-0.294,0.007-0.374-0.006c-0.138-0.025-0.319-0.15-0.478-0.41c-0.302-0.548,0.208-0.926,0.216-1.065
				c0.012-0.148-0.057-0.07-0.066-0.301c-0.009-0.228,0.25-0.269,0.315-0.316c0.073-0.051-0.019-0.114-0.001-0.337
				c0.135-0.505,0.957-1.086,0.747-1.249c-0.191-0.102-0.59,0.338-0.745,0.539c-0.566,0.729-1.226,0.501-1.449,0.51
				c-0.5,0.027-0.412-0.519-0.063-0.48c0.402-0.082,0.373-0.638,0.658-0.583c0.092,0.406-0.358,0.463-0.147,0.554
				c0.287,0.114,0.315-0.262,0.406-0.421c0.086-0.16,0.491-0.505,0.445-0.594c-0.117-0.04-0.416,0.173-0.551,0.277
				c-0.329-0.82,0.5-1.444,0.541-1.688c0.271-0.429,1.79-0.977,1.818-1.627l0.042-0.036c0,0,0.028-0.019,0.074,0.058
				c0,0,0,0,0.003,0c0.01,0.04,0.017,0.082,0.029,0.126c0.003,0.053-0.002,0.101-0.002,0.101l0.007-0.063
				c0.012,0.103,0.007,0.189,0.012,0.169v0.099c0.014,0.058,0.091,0.088,0.104,0.094c0.031-0.006,0.115-0.032,0.193-0.122
				c0.012-0.014,0.101-0.098,0.101-0.118c0.146-0.106,0.172-0.121,0.274-0.267c0.261-0.38-0.242-0.937-0.103-1.448
				c0.096-0.341,0.414-0.744,0.414-0.744c0.085-0.193-0.05-0.191-0.05-0.191c-0.2-0.037-0.34,0.178-0.31,0.149
				c-0.256,0.241-0.333,0.358-0.52,0.681c0,0-0.157,0.143-0.203-0.053c-0.09-0.32,0.275-0.952,0.389-1.033
				c0.213-0.146,0.43-0.21,0.697-0.318c0.135-0.057,0.335-0.272,0.469-0.309c0.066-0.022,0.137-0.036,0.206,0
				c0,0,0.101,0.074,0.054,0.309c0,0-0.103,0.281-0.066,0.385c0.022,0.069,0.013,0.136,0.171,0.136
				c0.372,0.007,1.205-0.08,1.449-0.21c0.056-0.021,0.109-0.104,0.16-0.152c0.077-0.078,0.057-0.194,0-0.206l-0.16-0.052
				c0.122-0.019-0.702-0.024-0.57-0.049c-0.144,0.024,0.195-0.385,0.155-0.578c-0.017-0.092-0.178-0.131-0.208-0.203
				c-0.016-0.047-0.104-0.115,0-0.157l0.12-0.051c0.04-0.028,0.083-0.077,0.139-0.104c0.261-0.121,0.729-0.062,0.935,0
				c0.022,0.011,0.357,0.104,0.468,0.416c0.029,0.087,0.052,0.185,0.103,0.262c0.157,0.214,0.614,0.291,0.882,0.036
				c0.053-0.049,0.118-0.17,0.158-0.242c0.267-0.611-0.128-1.027-0.626-1.197c-0.201-0.071-0.526-0.091-0.778-0.156
				c-0.177-0.049-0.071-0.198-0.02-0.243l0.076-0.067c0.098-0.146,0.407-0.276,0.519-0.311c0.275-0.104,0.545-0.207,0.934-0.049
				c0.058,0.02,0.209,0.139,0.253,0.15c0.295,0.074,0.406,0.096,0.679-0.047c0.11-0.053,0.093-0.067,0.104-0.1
				c0.097-0.279-0.096-0.463-0.09-0.434c-0.058-0.375,1.01,0.088,1.176-0.148c0.157-0.213,0.055-0.621,0.261-0.775
				c0.024-0.014,0.146-0.1,0.155-0.104c0.199-0.041,0.373,0.041,0.531,0.104l0.168,0.08c0.337,0.139,0.628,0.213,0.81,0.489
				c0.114,0.181,0.093,0.442,0.204,0.626c0.048,0.078,0.159,0.127,0.216,0.207c0.047,0.057,0.14,0.095,0.202,0.13
				c0.096,0.06,0.133,0.085,0.257,0.124c0.092,0.037,0.225,0.176,0.313,0.212c0.317,0.129,0.696,0.11,1.038,0.103
				c0.204-0.008,0.324,0.111,0.517,0.053c0.099-0.033,0.071-0.209,0.009-0.283c-0.124-0.157-0.218-0.119-0.423-0.236
				c-0.08-0.049-0.181-0.209-0.261-0.256c-0.236-0.154-0.58-0.177-0.723-0.418c-0.02-0.037-0.047-0.107-0.051-0.15l-0.058-0.11
				c-0.287-0.582-0.378-0.927-0.102-1.036c0.171-0.065,0.546-0.028,0.731-0.104c0.042-0.022,0.121-0.139,0.153-0.156
				c0.412-0.195,1.187-0.424,1.611-0.207c0.128,0.061,0,0.391,0.047,0.518c0.027,0.057,0.122,0.153,0.23,0.186
				c0.891,0.24,1.781,0.199,2.434,0.509c0.39,0.183,0.688,0.472,1.039,0.774c0.301,0.27-0.056,0.572,0.254,0.663
				c-0.212,0.028-0.392,0.052-0.429-0.06c-0.01-0.027-0.074-0.124-0.104-0.152c-0.233-0.221-0.505-0.563-0.828-0.674
				c-0.167-0.061-0.241-0.008-0.418-0.055l-0.209-0.07c-0.225-0.063-0.241-0.041-0.462-0.086c-0.098-0.02-0.321-0.141-0.418-0.151
				c-0.441-0.065-0.688,0.111-1.091,0c-0.186-0.054-0.425-0.349-0.575-0.429c-0.187-0.105-0.358-0.143-0.567-0.209
				c-0.084-0.023-0.127-0.023-0.19,0.009c-0.115,0.067-0.077,0.171-0.017,0.255c0.034,0.046,0.063,0.124,0.104,0.148
				c0.147,0.106,0.438,0.106,0.519,0.26c0.229,0.453-0.107,0.611-0.156,0.746c-0.024,0.081-0.087,0.146,0,0.256
				c0.049,0.059,0.152,0.131,0.21,0.152c0.21,0.092,0.376,0.057,0.572,0.158c0.14,0.074,0.286,0.326,0.466,0.365
				c0.416,0.09,0.515-0.217,0.725-0.264c0.3-0.065,0.486,0.093,0.831,0c0.114-0.029,0.177-0.166,0.258-0.203
				c0.199-0.105,0.396-0.121,0.52-0.057c0,0,0.134,0.064-0.053,0.158c-0.108,0.059-0.198,0.059-0.31,0.115
				c-0.075,0.041-0.142,0.146-0.154,0.164c-0.035,0.072-0.06,0.18-0.058,0.188c0.033,0.059,0.078,0.091,0.106,0.105
				c0.361,0.125,0.73-0.109,1.04-0.156c0.229-0.037,0.872,0,1.057,0.142c0,0,0.171,0.035,0.06,0.347
				c-0.068,0.187-0.364,0.322-0.476,0.481c-0.065,0.089-0.138,0.261-0.205,0.348c-0.109,0.142-0.128,0.138-0.239,0.268l-0.076,0.11
				c-0.045,0.133-0.573,0.582-0.673,0.732c-0.059,0.088-0.087,0.183-0.15,0.279c-0.095,0.135-0.164,0.157-0.212,0.24
				c-0.152,0.219-0.451,0.663-0.696,0.775c-0.11,0.045-0.264-0.006-0.417-0.035c-0.104-0.029-0.217-0.221-0.308-0.262
				c-0.363-0.166-0.767-0.119-1.086-0.313c-0.16-0.095-0.308-0.375-0.421-0.518c-0.076-0.099-0.144-0.271-0.259-0.316
				c-0.186-0.063-0.637-0.004-0.724,0.157c-0.171,0.326,0.275,1.164,0.313,1.509c0.027,0.293-0.107,0.426,0,0.671
				c0.05,0.125,0.244,0.158,0.309,0.261c0.281,0.442,0.036,1.066,0.103,1.658c0.026,0.184,0.136,0.412,0.104,0.679
				c-0.044,0.414-0.577,0.77-0.361,1.399c0.008,0.025,0.108,0.1,0.116,0.105c0.083,0.04,0.213,0.023,0.3-0.002
				c0.172-0.06,0.34-0.406,0.522-0.518c0.018-0.021,0.077-0.051,0.109-0.051c0.019-0.036,0.068-0.038,0.097-0.051
				c0.076-0.058,0.106-0.06,0.152-0.157c0.074-0.169,0.049-0.334,0.104-0.574c0.054-0.197,0.237-0.55,0.261-0.778
				c0.063-0.636-0.397-1.877-0.066-2.082c0.126-0.078,0.251-0.229,0.469-0.262c0.097-0.022,0.41,0.074,0.545,0.07
				c-0.001,0.004-0.003,0.005-0.003,0.005c-0.169,0.397,0.453,1.437,0.404,2.009c-0.121,1.395-1.033,2.164-1.819,2.908
				c-0.09,0.089-0.014,0.19,0.054,0.261c0.156,0.146,0.534,0.082,0.73,0.051c0.285-0.06,0.413-0.187,0.622-0.259
				c0.077-0.031,0.171,0.018,0.257,0c0.215-0.059,0.397-0.351,0.52-0.526c0,0,0.254-0.272,0.308,0.089l0.005,0.021
				c0,0.336-0.059,0.706,0,1.034c0.062,0.391,0.772,1.56,1.141,1.612c0.864,0.127-0.02-0.962-0.056-1.04
				c-0.141-0.327-0.278-0.915-0.258-1.347c0.004-0.158,0.136-0.479,0.154-0.628c0.008-0.073-0.03-0.245,0-0.306
				c0.068-0.138,0.525-0.185,0.625-0.366c0.026-0.051-0.013-0.146,0-0.205c0.021-0.125,0.112-0.355,0.208-0.463
				c0.062-0.078,0.151-0.123,0.259,0c0.089,0.1,0.112,0.33,0.261,0.499l0.127,0.14c0.153,0.099,0.401-0.034,0.336-0.018
				c0.161-0.044,0.142-0.209,0.209-0.264c0.011-0.011,0.101-0.051,0.101-0.051c0.375-0.385-0.457-0.733-0.466-1.091
				c-0.008-0.397,0.088-0.858-0.049-1.297c-0.035-0.109-0.238-0.264-0.262-0.361c-0.056-0.251,0.074-0.516,0.104-0.674
				c0.058-0.332-0.056-0.842,0.054-0.988c0.061-0.08,0.162-0.139,0.362-0.104c0.131,0.024,0.219,0.239,0.311,0.312
				c0.34,0.273,0.734,0.426,1.299,0.361c0.07-0.002,0.128-0.107,0.14-0.138c0.036-0.104,0.029-0.236-0.037-0.327
				c-0.204-0.273-0.994-0.482-1.037-0.619c-0.031-0.102-0.156-0.237-0.019-0.306c-0.076,0.044,0.487-0.017,0.69-0.06
				c0.264-0.058,0.284-0.32,0.466-0.412c0.258-0.137,0.638-0.018,0.782-0.259c0.086-0.156,0.019-0.38,0.102-0.522
				c0.102-0.184,0.41-0.221,0.569-0.366C34.636,23.37,34.614,23.21,34.603,23.159 M13.747,35.293
				c-0.102-0.114-0.016-0.334,0.172-0.427c0.347-0.165,0.49,0.025,0.565,0.116c0.336,0.521,0.771,1.198,1.095,1.467
				C15.28,36.479,14.165,36.137,13.747,35.293 M16.602,40.54c-0.182,0-1.336-0.973-1.163-1.577c0.342,0.254,1.111,0.79,1.208,0.78
				C16.75,39.802,16.832,40.472,16.602,40.54 M17.944,40.544c-0.15-0.133-1.27-1.317-0.99-1.864
				c0.308,0.309,1.163,1.095,1.468,1.171C18.507,40.075,18.495,40.694,17.944,40.544 M18.064,36.026
				c0.196,0.294,0.465,0.465,0.451,1.098c-0.019,0.156,0.031,0.186,0.161,0.175c0.118-0.033,0.054-0.763,0.407-0.717
				c0.301,0.045,0.097,0.461,0.246,0.933c0.055,0.167,0.395,0.768,0.303,1.799c-0.008,0.267-0.515,0.613-0.803,0.41
				c-0.237-0.144-0.237-0.319-0.374-1.41c-0.058-0.643-0.841-0.864-1.174-1.156c-0.333-0.245-0.143-0.368-0.204-0.813
				c-0.192-0.646-0.944-0.947-0.692-1.377c0.078-0.107,0.154-0.209,0.393-0.118C16.791,35.168,17.555,35.415,18.064,36.026
				 M12.718,33.988c-0.02,0.011-0.023,0.013,0.007-0.002C12.725,33.986,12.721,33.986,12.718,33.988
				c0.077-0.034,0.412-0.192,0.5-0.224c0.354-0.125,0.543,0.063,0.869-0.116c0.077-0.049,0.163-0.174,0.234-0.23
				c0.061-0.058,0.174-0.051,0.247-0.102c0.181-0.123,0.517-0.51,0.75-0.55c0.133-0.025,0.133,0.011,0.201,0.017
				c0,0.013,0.1-0.021,0.074,0.178c-0.062,0.385,0.841-0.004,1.434,0.138c0.403,0.095,0.796,0.232,0.692,0.492
				c0.014-0.027-0.118,0.08-0.149,0.1c-0.277,0.201-0.494-0.02-0.635-0.04c-0.242-0.027-0.415,0.046-0.663,0.015
				c0-0.002-0.298-0.1-0.298-0.1c-0.188-0.011-0.459,0.089-0.604,0.1c-0.272,0.021-0.404-0.076-0.649-0.049
				c-0.12,0.013-0.312,0.169-0.399,0.201c-0.08,0.029-0.173,0.057-0.251,0.082c-0.055,0.013-0.189,0.087-0.252,0.114
				c-0.247,0.123-0.394,0.123-0.7,0.203l-0.177,0.049C12.562,34.313,12.6,34.054,12.718,33.988 M11.794,35.471
				c0.408-0.098,0.529,0.008,0.724,0.474c0.145,0.274,0.449,0.638,0.566,0.812c-0.471,0.055-1.22-0.588-1.429-0.938
				C11.521,35.644,11.725,35.506,11.794,35.471 M6.595,33.523c0.538-0.15,1.013-0.307,1.211-0.421
				c0.072-0.004,0.142-0.004,0.214-0.009c0.03,0.142,0.086,0.288,0.171,0.432c0.019,0.029,0.038,0.058,0.054,0.082
				C7.921,33.616,7.264,33.574,6.595,33.523 M7.715,34.462c0.276-0.165,0.54-0.345,0.791-0.528c0.114,0.135,0.239,0.26,0.378,0.378
				C8.739,34.35,8.283,34.407,7.715,34.462L7.715,34.462z"/>
			<path fill="#910023" d="M12.718,33.988c0.003-0.002,0.006-0.002,0.006-0.002C12.695,34.001,12.699,33.999,12.718,33.988
				L12.718,33.988z"/>
		</g>
	</g>
	<path fill="#910023" d="M50.138,15.271h4.901V9.276h2.341v5.995h3.581c0.72-1.236,0.76-6.53,0.76-6.571V4.662h-9.942V2.438h12.382
		v4.059c0,5.562-0.54,8.116-0.76,8.775h2.361v2.204H50.138V15.271z"/>
	<path fill="#910023" d="M80.44,18.382v-2.39c-0.48,0.186-1.581,0.474-3.281,0.474l-6.261,0.041c-0.06,0-1.681-0.227-1.74-1.978
		V7.794h5.201v-3.42h-5.361V2.231H76.7v7.828h-4.981v4.243h5.701c0.06,0,2.08,0,3.021-0.762v-1.669H78.5V9.709h1.94V7.773H78.5
		V5.569h1.94V2.025h2.44v16.356H80.44z"/>
	<path fill="#910023" d="M94.959,15.56c-0.58,0.186-1.44,0.392-2.8,0.453c-0.86,0.062-1.78,0.062-2.521,0.062
		c-0.44,0-0.86,0-1.26-0.021c-0.06,0-1.661-0.206-1.721-2.039V2.129h6.222v2.163h-3.721v9.558h3.301c0.28,0,0.56-0.021,0.86-0.041
		c0.5-0.062,1.1-0.145,1.64-0.392V2.025h2.301v5.83h1.58v-5.83h2.241v16.356H98.84v-8.281h-1.58v8.281h-2.301V15.56z"/>
	<path fill="#910023" d="M110.919,2.355h3.98v2.101h-1.48c0.46,0.681,0.7,1.422,0.7,2.204c0,2.369-1.98,4.306-4.381,4.306
		c-2.4,0-4.441-1.998-4.441-4.306c0-0.803,0.26-1.523,0.72-2.204h-1.64V2.355h4.141V0.77h2.401V2.355z M118.601,12.223v6.303H116.1
		v-4.202h-10.262v-2.101H118.601z M109.738,4.601c-1.12,0-2.08,0.947-2.08,2.163c0,1.153,0.96,2.101,2.08,2.101
		c1.121,0,2.101-0.947,2.101-2.101C111.839,5.548,110.859,4.601,109.738,4.601z M118.601,2.025v3.626h1.64v2.204h-1.64v3.419h-2.441
		V2.025H118.601z"/>
	<path fill="#910023" d="M137.761,17.476h-15.624v-2.204h3.021V9.545h2.401v5.727h1.78V9.545h2.4v5.727h1.22
		c0.64-1.071,0.76-5.418,0.76-6.51V4.704h-9.942V2.438h12.402v4.12c0,5.768-0.56,8.137-0.78,8.714h2.361V17.476z"/>
	<path fill="#910023" d="M65.762,41.476H50.138v-2.204h3.021v-5.727h2.401v5.727h1.78v-5.727h2.4v5.727h1.22
		c0.64-1.071,0.76-5.418,0.76-6.51v-4.058h-9.942v-2.267h12.402v4.12c0,5.768-0.56,8.137-0.78,8.714h2.361V41.476z"/>
	<path fill="#910023" d="M79.78,42.32v-3.111H69.478v-2.162h2.36v-0.824h-3.701v-2.225h15.624v2.225h-3.741v0.824h2.26v5.273H79.78z
		 M75.939,25.119c2.38,0,4.301,1.875,4.301,4.161c0,2.287-1.92,4.161-4.301,4.161s-4.301-1.874-4.301-4.161
		C71.639,26.994,73.559,25.119,75.939,25.119z M75.939,31.278c1.04,0,1.88-0.886,1.88-1.998s-0.84-1.998-1.88-1.998
		s-1.88,0.886-1.88,1.998S74.899,31.278,75.939,31.278z M74.179,37.047h3.5v-0.824h-3.5V37.047z"/>
	<path fill="#910023" d="M86.658,32.247c3.161-0.722,3.821-2.41,3.881-3.502v-0.453h-3.221v-2.204H96.3v2.204h-3.201v0.453
		c0,1.133,0.82,2.843,3.861,3.502l-0.7,1.833c-2.36-0.329-3.96-1.813-4.441-2.575c-0.48,0.783-2.2,2.308-4.441,2.575L86.658,32.247z
		 M95.7,34.595c2.701,0,4.901,1.978,4.901,4.43c0,2.451-2.201,4.429-4.901,4.429s-4.901-1.978-4.901-4.429
		C90.799,36.572,92.999,34.595,95.7,34.595z M95.64,41.249c1.28,0,2.321-0.989,2.321-2.225c0-1.236-1.041-2.226-2.321-2.226
		s-2.32,0.989-2.32,2.226C93.319,40.26,94.359,41.249,95.64,41.249z M98.48,26.025h2.44v8.569h-2.44v-3.316H96.42v-2.163h2.061
		V26.025z"/>
	<path fill="#910023" d="M119.761,41.476h-15.624v-2.204h6.542v-3.646h-3.681c-0.5,0-0.84-0.103-1.061-0.433
		c-0.24-0.227-0.36-0.68-0.36-1.359v-7.498h2.5v2.657h7.742v-2.657h2.46v9.29h-5.141v3.646h6.622V41.476z M108.078,33.524h7.702
		v-2.432h-7.702V33.524z"/>
</g>
<g id="Layer_6">
</g>
<g id="korea_University_Global_construction_engineering_department_3_">
</g>
<g id="korea_University_Global_construction_engineering_department_2_">
</g>
</svg>
