<svg width="168" height="33" viewBox="0 0 168 33" fill="none" xmlns="http://www.w3.org/2000/svg">
<path d="M50.7276 22.1817H38.4412V0.772461H28.6562V30.8999H50.7276V22.1817Z" fill="white"/>
<path d="M68.4214 13.4635C69.1203 15.266 69.8928 17.1053 70.6285 18.9814H64.6325L66.8396 13.4635L67.6121 11.5139L68.4214 13.4635ZM51.3896 30.9367H60.6964C60.9539 29.502 61.3953 28.1042 61.8 26.6328H73.4243C73.9025 28.1042 74.2703 29.502 74.5646 30.9367H83.8714C83.8714 25.9706 74.3439 8.57102 73.2403 0.772461H61.9471C60.8803 8.57102 51.3896 26.0074 51.3896 30.9367Z" fill="white"/>
<path d="M153.617 9.52744C154.868 9.52744 156.707 9.49066 156.707 11.9185C156.707 14.5303 154.389 14.6039 153.617 14.6039H150.453V9.52744H153.617ZM140.779 0.772461V30.9367H150.453V22.1817C151.667 22.1817 153.102 22.3288 153.985 23.1749C156.781 25.7867 157.038 30.9367 157.038 30.9367H167.963C167.338 29.1342 166.897 24.7935 164.395 22.2921C163.255 21.1885 161.857 20.416 160.422 19.8274C164.285 18.6135 166.97 15.0085 166.97 10.9621C166.97 2.02317 159.098 0.772461 154.537 0.772461H140.779Z" fill="white"/>
<path d="M97.5553 10.1528C102.595 10.1528 103.699 12.7278 103.699 15.8914C103.699 19.1285 102.485 21.5931 97.5553 21.5931H94.355V10.1528H97.5553ZM84.6436 30.9367H97.5185C111.902 30.9367 114.035 21.5931 114.035 15.8914C114.035 9.1228 110.32 0.772461 97.5185 0.772461H84.6436V30.9367Z" fill="white"/>
<path d="M139.418 22.1817H124.556V19.0917H137.909V12.1024H124.556V9.5274H139.418L139.712 0.809204H114.845V30.9366H139.712L139.418 22.1817Z" fill="white"/>
<path d="M19.8642 12.5071L17.7307 12.0288C17.5467 11.9921 13.4268 11.1828 12.5807 10.8149C11.9553 10.5206 11.5507 10.1528 11.4771 9.74814C11.4403 9.45385 11.5507 9.19635 11.8082 8.93885C12.6175 8.16636 14.1257 8.23993 18.3192 9.12278C19.901 9.45385 21.8507 10.2264 22.8071 10.8149L26.1546 3.08994C25.4557 2.64851 25.0878 2.46458 24.7567 2.31744L24.6464 2.24387C21.9978 1.06673 19.4228 0.367802 16.7375 0.110303C10.7414 -0.404696 5.84892 0.993158 2.90607 4.11994C0.662142 6.58457 -0.183928 9.67457 0.625356 12.5806C1.43464 15.5235 3.78892 17.841 6.95249 18.7974C7.54106 19.0181 8.16641 19.1285 8.79177 19.2756L9.89534 19.4963L10.9621 19.6803L12.5071 19.8642C14.0889 20.1217 15.7443 20.5631 15.965 21.4828C16.0385 21.8506 16.0018 22.1817 15.8178 22.476C15.5235 22.9174 14.9718 23.2117 14.1993 23.3588C11.9921 23.7267 5.55463 22.0713 3.34749 20.5263L0 28.8767C1.87607 29.7963 3.89928 30.532 6.03284 31.047C18.6135 34.0634 25.8603 29.3917 27.2582 23.7635C28.5824 18.3928 25.6764 13.9785 19.8642 12.5071Z" fill="white"/>
</svg>